<svg xmlns="http://www.w3.org/2000/svg" width="390" height="844" viewBox="0 0 390 844">
<rect width="390" height="844" fill="#000000"/>
<text x="24" y="34" font-family="Noto Sans, DejaVu Sans, Helvetica, Arial, sans-serif" font-size="12" font-weight="400" fill="#6e6c68" text-anchor="start">Good evening</text><text x="24" y="62" font-family="Noto Sans, DejaVu Sans, Helvetica, Arial, sans-serif" font-size="24" font-weight="700" fill="#e8e6e3" text-anchor="start">Emmanuel</text><circle cx="348" cy="46" r="18" fill="#6a59e8"/><text x="348" y="51" font-family="Noto Sans, DejaVu Sans, Helvetica, Arial, sans-serif" font-size="13" font-weight="600" fill="#ffffff" text-anchor="middle">EG</text><rect x="24" y="84" width="342" height="44" fill="#0d0d0d" rx="6"/><rect x="24.5" y="84.5" width="341" height="43" rx="6" fill="none" stroke="#1c1b1a"/><g transform="translate(36 97) scale(0.75)" fill="none" stroke="#6e6c68" stroke-width="2.3333333333333335" stroke-linecap="round" stroke-linejoin="round"><path d="M11 3a8 8 0 1 0 0 16 8 8 0 0 0 0-16M21 21l-4.3-4.3"/></g><text x="64" y="111" font-family="Noto Sans, DejaVu Sans, Helvetica, Arial, sans-serif" font-size="14" font-weight="400" fill="#6e6c68" text-anchor="start">Search your library</text><text x="24" y="166" font-family="Noto Sans, DejaVu Sans, Helvetica, Arial, sans-serif" font-size="16" font-weight="700" fill="#e8e6e3" text-anchor="start">Continue reading</text><g><rect x="24" y="184" width="120" height="170" fill="#fdfdfc" rx="6"/><text x="36" y="214" font-family="Noto Sans, DejaVu Sans, Helvetica, Arial, sans-serif" font-size="11" font-weight="700" fill="#1a1a1a" text-anchor="start">Thinking, Fast</text><text x="36" y="227" font-family="Noto Sans, DejaVu Sans, Helvetica, Arial, sans-serif" font-size="11" font-weight="700" fill="#1a1a1a" text-anchor="start">and Slow</text><text x="36" y="244" font-family="Noto Sans, DejaVu Sans, Helvetica, Arial, sans-serif" font-size="7" font-weight="400" fill="#6e6c68" text-anchor="start">Daniel Kahneman</text><rect x="36" y="262" width="92" height="1.6" fill="#c9c6c0"/><rect x="36" y="271" width="92" height="1.6" fill="#c9c6c0"/><rect x="36" y="280" width="92" height="1.6" fill="#c9c6c0"/><rect x="36" y="289" width="58" height="1.6" fill="#c9c6c0"/><rect x="36" y="298" width="92" height="1.6" fill="#c9c6c0"/><rect x="36" y="307" width="92" height="1.6" fill="#c9c6c0"/><rect x="36" y="316" width="92" height="1.6" fill="#c9c6c0"/><rect x="36" y="325" width="58" height="1.6" fill="#c9c6c0"/><rect x="36" y="334" width="92" height="1.6" fill="#c9c6c0"/><rect x="24.5" y="184.5" width="119" height="169" rx="6" fill="none" stroke="rgba(255,255,255,.05)"/></g><text x="24" y="373" font-family="Noto Sans, DejaVu Sans, Helvetica, Arial, sans-serif" font-size="12" font-weight="400" fill="#e8e6e3" text-anchor="start">Thinking, Fast and</text><text x="24" y="389" font-family="Noto Sans, DejaVu Sans, Helvetica, Arial, sans-serif" font-size="12" font-weight="400" fill="#e8e6e3" text-anchor="start">Slow</text><rect x="24" y="407" width="120" height="2" fill="#262523" rx="1"/><rect x="24" y="407" width="52" height="2" fill="#6a59e8" rx="1"/><text x="24" y="419" font-family="Noto Sans, DejaVu Sans, Helvetica, Arial, sans-serif" font-size="10" font-weight="400" fill="#6e6c68" text-anchor="start">42% · page 216 of 499</text><g><rect x="158" y="184" width="120" height="170" fill="#fdfdfc" rx="6"/><text x="170" y="214" font-family="Noto Sans, DejaVu Sans, Helvetica, Arial, sans-serif" font-size="11" font-weight="700" fill="#1a1a1a" text-anchor="start">The Design of</text><text x="170" y="227" font-family="Noto Sans, DejaVu Sans, Helvetica, Arial, sans-serif" font-size="11" font-weight="700" fill="#1a1a1a" text-anchor="start">Everyday Things</text><text x="170" y="244" font-family="Noto Sans, DejaVu Sans, Helvetica, Arial, sans-serif" font-size="7" font-weight="400" fill="#6e6c68" text-anchor="start">Don Norman</text><rect x="170" y="262" width="92" height="1.6" fill="#c9c6c0"/><rect x="170" y="271" width="92" height="1.6" fill="#c9c6c0"/><rect x="170" y="280" width="92" height="1.6" fill="#c9c6c0"/><rect x="170" y="289" width="58" height="1.6" fill="#c9c6c0"/><rect x="170" y="298" width="92" height="1.6" fill="#c9c6c0"/><rect x="170" y="307" width="92" height="1.6" fill="#c9c6c0"/><rect x="170" y="316" width="92" height="1.6" fill="#c9c6c0"/><rect x="170" y="325" width="58" height="1.6" fill="#c9c6c0"/><rect x="170" y="334" width="92" height="1.6" fill="#c9c6c0"/><rect x="158.5" y="184.5" width="119" height="169" rx="6" fill="none" stroke="rgba(255,255,255,.05)"/></g><text x="158" y="373" font-family="Noto Sans, DejaVu Sans, Helvetica, Arial, sans-serif" font-size="12" font-weight="400" fill="#e8e6e3" text-anchor="start">The Design of</text><text x="158" y="389" font-family="Noto Sans, DejaVu Sans, Helvetica, Arial, sans-serif" font-size="12" font-weight="400" fill="#e8e6e3" text-anchor="start">Everyday Things</text><rect x="158" y="407" width="120" height="2" fill="#262523" rx="1"/><rect x="158" y="407" width="85" height="2" fill="#6a59e8" rx="1"/><text x="158" y="419" font-family="Noto Sans, DejaVu Sans, Helvetica, Arial, sans-serif" font-size="10" font-weight="400" fill="#6e6c68" text-anchor="start">71% · page 261 of 368</text><g><rect x="292" y="184" width="120" height="170" fill="#fdfdfc" rx="6"/><text x="304" y="214" font-family="Noto Sans, DejaVu Sans, Helvetica, Arial, sans-serif" font-size="11" font-weight="700" fill="#1a1a1a" text-anchor="start">Convex Backend</text><text x="304" y="227" font-family="Noto Sans, DejaVu Sans, Helvetica, Arial, sans-serif" font-size="11" font-weight="700" fill="#1a1a1a" text-anchor="start">Architecture</text><rect x="304" y="262" width="92" height="1.6" fill="#c9c6c0"/><rect x="304" y="271" width="92" height="1.6" fill="#c9c6c0"/><rect x="304" y="280" width="92" height="1.6" fill="#c9c6c0"/><rect x="304" y="289" width="58" height="1.6" fill="#c9c6c0"/><rect x="304" y="298" width="92" height="1.6" fill="#c9c6c0"/><rect x="304" y="307" width="92" height="1.6" fill="#c9c6c0"/><rect x="304" y="316" width="92" height="1.6" fill="#c9c6c0"/><rect x="304" y="325" width="58" height="1.6" fill="#c9c6c0"/><rect x="304" y="334" width="92" height="1.6" fill="#c9c6c0"/><rect x="292.5" y="184.5" width="119" height="169" rx="6" fill="none" stroke="rgba(255,255,255,.05)"/></g><text x="292" y="373" font-family="Noto Sans, DejaVu Sans, Helvetica, Arial, sans-serif" font-size="12" font-weight="400" fill="#e8e6e3" text-anchor="start">Convex Backend</text><text x="292" y="389" font-family="Noto Sans, DejaVu Sans, Helvetica, Arial, sans-serif" font-size="12" font-weight="400" fill="#e8e6e3" text-anchor="start">Architecture</text><rect x="292" y="407" width="120" height="2" fill="#262523" rx="1"/><rect x="292" y="407" width="21" height="2" fill="#6a59e8" rx="1"/><text x="292" y="419" font-family="Noto Sans, DejaVu Sans, Helvetica, Arial, sans-serif" font-size="10" font-weight="400" fill="#6e6c68" text-anchor="start">18% · page 15 of 84</text><rect x="0" y="0" width="390" height="844" fill="rgba(0,0,0,.45)"/><rect x="168" y="66" width="198" height="186" fill="#141414" rx="6"/><rect x="168.5" y="66.5" width="197" height="185" rx="6" fill="none" stroke="#262523"/><text x="182" y="90" font-family="Noto Sans, DejaVu Sans, Helvetica, Arial, sans-serif" font-size="13" font-weight="600" fill="#e8e6e3" text-anchor="start">Emmanuel Gichuhi</text><text x="182" y="108" font-family="Noto Sans, DejaVu Sans, Helvetica, Arial, sans-serif" font-size="11" font-weight="400" fill="#6e6c68" text-anchor="start">egichuhi580@gmail.com</text><rect x="168" y="120" width="198" height="1" fill="#1c1b1a"/><g transform="translate(182 141) scale(0.7083333333333334)" fill="none" stroke="#8f8d88" stroke-width="2.4705882352941173" stroke-linecap="round" stroke-linejoin="round"><path d="M19 21v-2a4 4 0 0 0-4-4H9a4 4 0 0 0-4 4v2M12 3a4 4 0 1 0 0 8 4 4 0 0 0 0-8"/></g><text x="210" y="156" font-family="Noto Sans, DejaVu Sans, Helvetica, Arial, sans-serif" font-size="14" font-weight="400" fill="#e8e6e3" text-anchor="start">Account</text><g transform="translate(182 185) scale(0.7083333333333334)" fill="none" stroke="#8f8d88" stroke-width="2.4705882352941173" stroke-linecap="round" stroke-linejoin="round"><path d="M20 7h-9M14 17H5M17 14a3 3 0 1 0 0 6 3 3 0 0 0 0-6M7 4a3 3 0 1 0 0 6 3 3 0 0 0 0-6"/></g><text x="210" y="200" font-family="Noto Sans, DejaVu Sans, Helvetica, Arial, sans-serif" font-size="14" font-weight="400" fill="#e8e6e3" text-anchor="start">Settings</text><rect x="168" y="220" width="198" height="1" fill="#1c1b1a"/><g transform="translate(182 238) scale(0.7083333333333334)" fill="none" stroke="#eb5757" stroke-width="2.4705882352941173" stroke-linecap="round" stroke-linejoin="round"><path d="m16 17 5-5-5-5M21 12H9M9 21H5a2 2 0 0 1-2-2V5a2 2 0 0 1 2-2h4"/></g><text x="210" y="253" font-family="Noto Sans, DejaVu Sans, Helvetica, Arial, sans-serif" font-size="14" font-weight="400" fill="#eb5757" text-anchor="start">Sign out</text>
</svg>