<svg xmlns="http://www.w3.org/2000/svg" width="390" height="844" viewBox="0 0 390 844">
<rect width="390" height="844" fill="#000000"/>
<text x="24" y="40" font-family="Noto Sans, DejaVu Sans, Helvetica, Arial, sans-serif" font-size="14" font-weight="400" fill="#8f8d88" text-anchor="start">Cancel</text><text x="195" y="40" font-family="Noto Sans, DejaVu Sans, Helvetica, Arial, sans-serif" font-size="16" font-weight="600" fill="#e8e6e3" text-anchor="middle">Add to library</text><rect x="129" y="66" width="132" height="187" fill="#fdfdfc" rx="6"/><text x="142.2" y="99" font-family="Noto Sans, DejaVu Sans, Helvetica, Arial, sans-serif" font-size="12.100000000000001" font-weight="700" fill="#1a1a1a" text-anchor="start">Thinking, Fast</text><text x="142.2" y="113.3" font-family="Noto Sans, DejaVu Sans, Helvetica, Arial, sans-serif" font-size="12.100000000000001" font-weight="700" fill="#1a1a1a" text-anchor="start">and Slow</text><text x="142.2" y="132" font-family="Noto Sans, DejaVu Sans, Helvetica, Arial, sans-serif" font-size="7.700000000000001" font-weight="400" fill="#6e6c68" text-anchor="start">Daniel Kahneman</text><rect x="142.2" y="151.8" width="101.2" height="1.7600000000000002" fill="#c9c6c0"/><rect x="142.2" y="161.7" width="101.2" height="1.7600000000000002" fill="#c9c6c0"/><rect x="142.2" y="171.60000000000002" width="101.2" height="1.7600000000000002" fill="#c9c6c0"/><rect x="142.2" y="181.5" width="63.800000000000004" height="1.7600000000000002" fill="#c9c6c0"/><rect x="142.2" y="191.4" width="101.2" height="1.7600000000000002" fill="#c9c6c0"/><rect x="142.2" y="201.3" width="101.2" height="1.7600000000000002" fill="#c9c6c0"/><rect x="142.2" y="211.20000000000002" width="101.2" height="1.7600000000000002" fill="#c9c6c0"/><rect x="142.2" y="221.10000000000002" width="63.800000000000004" height="1.7600000000000002" fill="#c9c6c0"/><rect x="142.2" y="231" width="101.2" height="1.7600000000000002" fill="#c9c6c0"/><rect x="129.5" y="66.5" width="131" height="186" rx="6" fill="none" stroke="rgba(255,255,255,.05)"/><text x="24" y="273" font-family="Noto Sans, DejaVu Sans, Helvetica, Arial, sans-serif" font-size="11" font-weight="600" fill="#6e6c68" text-anchor="start" letter-spacing="0.6">TITLE</text><rect x="24" y="281" width="342" height="44" fill="none" rx="6"/><rect x="24.5" y="281.5" width="341" height="43" rx="6" fill="none" stroke="#262523"/><text x="36" y="308" font-family="Noto Sans, DejaVu Sans, Helvetica, Arial, sans-serif" font-size="14" font-weight="400" fill="#e8e6e3" text-anchor="start">Thinking, Fast and Slow</text><text x="24" y="343" font-family="Noto Sans, DejaVu Sans, Helvetica, Arial, sans-serif" font-size="11" font-weight="600" fill="#6e6c68" text-anchor="start" letter-spacing="0.6">AUTHOR</text><rect x="24" y="351" width="342" height="44" fill="none" rx="6"/><rect x="24.5" y="351.5" width="341" height="43" rx="6" fill="none" stroke="#262523"/><text x="36" y="378" font-family="Noto Sans, DejaVu Sans, Helvetica, Arial, sans-serif" font-size="14" font-weight="400" fill="#e8e6e3" text-anchor="start">Daniel Kahneman</text><g transform="translate(24 409) scale(0.5)" fill="none" stroke="#6e6c68" stroke-width="4" stroke-linecap="round" stroke-linejoin="round"><path d="M12 2a10 10 0 1 0 0 20 10 10 0 0 0 0-20M12 16v-4M12 8h.01"/></g><text x="42" y="419" font-family="Noto Sans, DejaVu Sans, Helvetica, Arial, sans-serif" font-size="12" font-weight="400" fill="#6e6c68" text-anchor="start">PDF · 4.1 MB · 499 pages</text><rect x="24" y="437" width="342" height="1" fill="#1c1b1a"/><g transform="translate(24 455) scale(0.7916666666666666)" fill="none" stroke="#8f8d88" stroke-width="2.210526315789474" stroke-linecap="round" stroke-linejoin="round"><path d="M12 13v8M8 17l4-4 4 4M20 16.58A5 5 0 0 0 18 7h-1.26A8 8 0 1 0 4 15.25"/></g><text x="58" y="469" font-family="Noto Sans, DejaVu Sans, Helvetica, Arial, sans-serif" font-size="15" font-weight="400" fill="#e8e6e3" text-anchor="start">Available on all devices</text><text x="58" y="489" font-family="Noto Sans, DejaVu Sans, Helvetica, Arial, sans-serif" font-size="12" font-weight="400" fill="#6e6c68" text-anchor="start">Keeps a copy in your account so your</text><text x="58" y="506" font-family="Noto Sans, DejaVu Sans, Helvetica, Arial, sans-serif" font-size="12" font-weight="400" fill="#6e6c68" text-anchor="start">other phones can download it.</text><rect x="322" y="457" width="44" height="26" rx="13" fill="#6a59e8"/><circle cx="353" cy="470" r="10" fill="#ffffff"/><rect x="24" y="762" width="342" height="48" fill="#6a59e8" rx="6"/><text x="195" y="792" font-family="Noto Sans, DejaVu Sans, Helvetica, Arial, sans-serif" font-size="15" font-weight="500" fill="#ffffff" text-anchor="middle">Add to library</text>
</svg>