<svg xmlns="http://www.w3.org/2000/svg" width="390" height="844" viewBox="0 0 390 844">
<rect width="390" height="844" fill="#000000"/>
<text x="24" y="34" font-family="Noto Sans, DejaVu Sans, Helvetica, Arial, sans-serif" font-size="12" font-weight="400" fill="#6e6c68" text-anchor="start">Good evening</text><text x="24" y="62" font-family="Noto Sans, DejaVu Sans, Helvetica, Arial, sans-serif" font-size="24" font-weight="700" fill="#e8e6e3" text-anchor="start">Emmanuel</text><circle cx="348" cy="46" r="18" fill="#6a59e8"/><text x="348" y="51" font-family="Noto Sans, DejaVu Sans, Helvetica, Arial, sans-serif" font-size="13" font-weight="600" fill="#ffffff" text-anchor="middle">EG</text><rect x="24" y="84" width="342" height="44" fill="#0d0d0d" rx="6"/><rect x="24.5" y="84.5" width="341" height="43" rx="6" fill="none" stroke="#1c1b1a"/><g transform="translate(36 97) scale(0.75)" fill="none" stroke="#6e6c68" stroke-width="2.3333333333333335" stroke-linecap="round" stroke-linejoin="round"><path d="M11 3a8 8 0 1 0 0 16 8 8 0 0 0 0-16M21 21l-4.3-4.3"/></g><text x="64" y="111" font-family="Noto Sans, DejaVu Sans, Helvetica, Arial, sans-serif" font-size="14" font-weight="400" fill="#6e6c68" text-anchor="start">Search your library</text><text x="24" y="166" font-family="Noto Sans, DejaVu Sans, Helvetica, Arial, sans-serif" font-size="16" font-weight="700" fill="#e8e6e3" text-anchor="start">Continue reading</text><rect x="24" y="184" width="120" height="170" fill="#1a1a1a" rx="6"/><rect x="24" y="362" width="120" height="12" fill="#1a1a1a" rx="6"/><rect x="24" y="380" width="80" height="12" fill="#1a1a1a" rx="6"/><rect x="24" y="400" width="60" height="10" fill="#1a1a1a" rx="6"/><rect x="158" y="184" width="120" height="170" fill="#1a1a1a" rx="6"/><rect x="158" y="362" width="120" height="12" fill="#1a1a1a" rx="6"/><rect x="158" y="380" width="80" height="12" fill="#1a1a1a" rx="6"/><rect x="158" y="400" width="60" height="10" fill="#1a1a1a" rx="6"/><rect x="292" y="184" width="120" height="170" fill="#1a1a1a" rx="6"/><rect x="292" y="362" width="120" height="12" fill="#1a1a1a" rx="6"/><rect x="292" y="380" width="80" height="12" fill="#1a1a1a" rx="6"/><rect x="292" y="400" width="60" height="10" fill="#1a1a1a" rx="6"/><text x="24" y="448" font-family="Noto Sans, DejaVu Sans, Helvetica, Arial, sans-serif" font-size="16" font-weight="700" fill="#e8e6e3" text-anchor="start">Recently added</text><rect x="24" y="466" width="120" height="170" fill="#1a1a1a" rx="6"/><rect x="24" y="644" width="120" height="12" fill="#1a1a1a" rx="6"/><rect x="24" y="662" width="80" height="12" fill="#1a1a1a" rx="6"/><rect x="24" y="682" width="60" height="10" fill="#1a1a1a" rx="6"/><rect x="158" y="466" width="120" height="170" fill="#1a1a1a" rx="6"/><rect x="158" y="644" width="120" height="12" fill="#1a1a1a" rx="6"/><rect x="158" y="662" width="80" height="12" fill="#1a1a1a" rx="6"/><rect x="158" y="682" width="60" height="10" fill="#1a1a1a" rx="6"/><rect x="292" y="466" width="120" height="170" fill="#1a1a1a" rx="6"/><rect x="292" y="644" width="120" height="12" fill="#1a1a1a" rx="6"/><rect x="292" y="662" width="80" height="12" fill="#1a1a1a" rx="6"/><rect x="292" y="682" width="60" height="10" fill="#1a1a1a" rx="6"/>
</svg>